<?xml version="1.0" standalone="no"?>
<!DOCTYPE svg PUBLIC "-//W3C//DTD SVG 20010904//EN"
 "http://www.w3.org/TR/2001/REC-SVG-20010904/DTD/svg10.dtd">
<svg version="1.0" xmlns="http://www.w3.org/2000/svg"
 width="500.000000pt" height="500.000000pt" viewBox="0 0 500.000000 500.000000"
 preserveAspectRatio="xMidYMid meet">
<metadata>
Created by potrace 1.14, written by Peter Selinger 2001-2017
</metadata>
<g transform="translate(0.000000,500.000000) scale(0.100000,-0.100000)"
fill="#000000" stroke="none">
<path d="M2299 4845 c-3 -2 -34 -7 -69 -10 -158 -15 -386 -70 -565 -137 -308
-114 -661 -349 -871 -578 -76 -83 -102 -114 -167 -200 -40 -52 -75 -96 -79
-98 -5 -2 -8 -8 -8 -13 0 -5 -20 -40 -45 -79 -93 -145 -246 -497 -268 -616 -2
-10 -9 -37 -15 -59 -12 -44 -36 -178 -49 -271 -10 -75 -10 -474 -1 -534 4 -25
10 -67 13 -95 31 -264 163 -630 322 -886 45 -74 135 -202 153 -219 3 -3 23
-27 45 -55 59 -74 249 -261 340 -335 43 -36 122 -93 175 -127 163 -106 464
-249 569 -269 13 -3 31 -9 40 -14 15 -8 158 -44 218 -55 16 -2 39 -7 53 -9 25
-5 40 -7 155 -23 117 -16 485 -9 590 11 11 2 40 7 65 11 84 14 95 16 155 31
127 32 268 80 375 126 78 35 244 120 261 134 8 8 19 14 23 14 15 0 194 127
285 202 195 162 386 382 501 578 59 99 72 124 116 210 58 116 133 318 163 443
15 60 49 237 49 257 0 8 4 44 9 80 15 120 7 496 -12 570 -2 8 -6 37 -10 64 -3
27 -8 52 -10 55 -1 3 -6 22 -9 41 -5 30 -20 94 -30 125 -2 6 -6 24 -11 40 -19
74 -61 194 -102 285 -67 152 -219 411 -292 495 -14 17 -42 51 -61 75 -19 25
-87 97 -151 161 -221 220 -496 401 -779 513 -103 40 -283 97 -350 110 -14 2
-50 10 -80 15 -30 6 -73 14 -95 17 -22 3 -58 8 -80 11 -51 7 -460 14 -466 8z"/>
</g>
</svg>
